<?xml version="1.0" encoding="UTF-8" standalone="no"?>
<svg
   xmlns:dc="http://purl.org/dc/elements/1.1/"
   xmlns:cc="http://creativecommons.org/ns#"
   xmlns:rdf="http://www.w3.org/1999/02/22-rdf-syntax-ns#"
   xmlns:svg="http://www.w3.org/2000/svg"
   xmlns="http://www.w3.org/2000/svg"
   xmlns:sodipodi="http://sodipodi.sourceforge.net/DTD/sodipodi-0.dtd"
   xmlns:inkscape="http://www.inkscape.org/namespaces/inkscape"
   aria-hidden="true"
   focusable="false"
   data-prefix="fas"
   data-icon="cogs"
   class="svg-inline--fa fa-cogs fa-w-20"
   role="img"
   viewBox="0 0 640 512"
   version="1.1"
   id="svg7571"
   sodipodi:docname="cogs-solid.svg"
   inkscape:version="0.92.3 (2405546, 2018-03-11)">
  <metadata
     id="metadata7577">
    <rdf:RDF>
      <cc:Work
         rdf:about="">
        <dc:format>image/svg+xml</dc:format>
        <dc:type
           rdf:resource="http://purl.org/dc/dcmitype/StillImage" />
      </cc:Work>
    </rdf:RDF>
  </metadata>
  <defs
     id="defs7575" />
  <sodipodi:namedview
     pagecolor="#ffffff"
     bordercolor="#666666"
     borderopacity="1"
     objecttolerance="10"
     gridtolerance="10"
     guidetolerance="10"
     inkscape:pageopacity="0"
     inkscape:pageshadow="2"
     inkscape:window-width="1366"
     inkscape:window-height="712"
     id="namedview7573"
     showgrid="false"
     inkscape:zoom="0.16296602"
     inkscape:cx="-634.84163"
     inkscape:cy="597.00798"
     inkscape:window-x="0"
     inkscape:window-y="0"
     inkscape:window-maximized="1"
     inkscape:current-layer="svg7571" />
  <path
     id="path7569-7-9"
     style="fill:#1dd1a1;fill-opacity:1"
     d="m 512.1,190.99999 -8.2,14.3 c -3,5.3 -9.4,7.5 -15.1,5.4 -11.8,-4.4 -22.6,-10.7 -32.1,-18.6 -4.6,-3.8 -5.8,-10.5 -2.8,-15.69999 l 8.2,-14.3 c -6.9,-8 -12.3,-17.3 -15.9,-27.4 h -16.5 c -6,0 -11.2,-4.3 -12.2,-10.3 -2,-12 -2.1,-24.6 0,-37.1 1,-6 6.2,-10.4 12.2,-10.4 h 16.5 c 3.6,-10.1 9,-19.4 15.9,-27.4 l -8.2,-14.3 c -3,-5.2 -1.9,-11.9 2.8,-15.7 9.5,-7.9 20.4,-14.2 32.1,-18.60001 5.7,-2.1 12.1,0.1 15.1,5.40001 l 8.2,14.3 c 10.5,-1.9 21.2,-1.9 31.7,0 L 552,6.3 c 3,-5.30001 9.4,-7.50001 15.1,-5.40001 C 578.9,5.3 589.7,11.6 599.2,19.5 603.8,23.3 605,30 602,35.2 l -8.2,14.3 c 6.9,8 12.3,17.3 15.9,27.4 h 16.5 c 6,0 11.2,4.3 12.2,10.3 2,12 2.1,24.6 0,37.1 -1,6 -6.2,10.4 -12.2,10.4 h -16.5 c -3.6,10.1 -9,19.4 -15.9,27.4 l 8.2,14.3 c 3,5.19999 1.9,11.89999 -2.8,15.69999 -9.5,7.9 -20.4,14.2 -32.1,18.6 -5.7,2.1 -12.1,-0.1 -15.1,-5.4 l -8.2,-14.3 c -10.4,1.9 -21.2,1.9 -31.7,0 z M 501.6,132.2 C 540.1,161.8 584,117.9 554.4,79.4 515.9,49.7 472,93.7 501.6,132.2 Z m 10.5,357.7 -8.2,14.3 c -3,5.3 -9.4,7.5 -15.1,5.4 -11.8,-4.4 -22.6,-10.7 -32.1,-18.6 -4.6,-3.8 -5.8,-10.5 -2.8,-15.7 l 8.2,-14.3 c -6.9,-8 -12.3,-17.3 -15.9,-27.4 h -16.5 c -6,0 -11.2,-4.3 -12.2,-10.3 -2,-12 -2.1,-24.6 0,-37.1 1,-6 6.2,-10.4 12.2,-10.4 h 16.5 c 3.6,-10.1 9,-19.4 15.9,-27.4 l -8.2,-14.3 c -3,-5.2 -1.9,-11.9 2.8,-15.7 9.5,-7.9 20.4,-14.2 32.1,-18.6 5.7,-2.1 12.1,0.1 15.1,5.4 l 8.2,14.3 c 10.5,-1.9 21.2,-1.9 31.7,0 l 8.2,-14.3 c 3,-5.3 9.4,-7.5 15.1,-5.4 11.8,4.4 22.6,10.7 32.1,18.6 4.6,3.8 5.8,10.5 2.8,15.7 l -8.2,14.3 c 6.9,8 12.3,17.3 15.9,27.4 h 16.5 c 6,0 11.2,4.3 12.2,10.3 2,12 2.1,24.6 0,37.1 -1,6 -6.2,10.4 -12.2,10.4 h -16.5 c -3.6,10.1 -9,19.4 -15.9,27.4 l 8.2,14.3 c 3,5.2 1.9,11.9 -2.8,15.7 -9.5,7.9 -20.4,14.2 -32.1,18.6 -5.7,2.1 -12.1,-0.1 -15.1,-5.4 l -8.2,-14.3 c -10.4,1.9 -21.2,1.9 -31.7,0 z M 501.6,431 c 38.5,29.6 82.4,-14.3 52.8,-52.8 -38.5,-29.6 -82.4,14.3 -52.8,52.8 z" />
  <path
     d="m 386.3,286.1 33.7,16.8 c 10.1,5.8 14.5,18.1 10.5,29.1 -8.9,24.2 -26.4,46.4 -42.6,65.8 -7.4,8.9 -20.2,11.1 -30.3,5.3 l -29.1,-16.8 c -16,13.7 -34.6,24.6 -54.9,31.7 v 33.6 c 0,11.6 -8.3,21.6 -19.7,23.6 -24.6,4.2 -50.4,4.4 -75.9,0 -11.5,-2 -20,-11.9 -20,-23.6 V 418 c -20.3,-7.2 -38.9,-18 -54.9,-31.7 L 74,403 C 64,408.8 51.1,406.6 43.7,397.7 27.5,378.3 10.4,356.1 1.5,332 -2.5,321.1 1.9,308.8 12,302.9 l 33.3,-16.8 c -3.9,-20.9 -3.9,-42.4 0,-63.4 L 12,205.8 C 1.9,200 -2.6,187.7 1.5,176.8 10.4,152.6 27.5,130.4 43.7,111 51.1,102.1 63.9,99.9 74,105.7 l 29.1,16.8 c 16,-13.7 34.6,-24.6 54.9,-31.7 V 57.1 c 0,-11.5 8.2,-21.5 19.6,-23.5 24.6,-4.2 50.5,-4.4 76,-0.1 11.5,2 20,11.9 20,23.6 v 33.6 c 20.3,7.2 38.9,18 54.9,31.7 l 29.1,-16.8 c 10,-5.8 22.9,-3.6 30.3,5.3 16.2,19.4 33.2,41.6 42.1,65.8 4,10.9 0.1,23.2 -10,29.1 l -33.7,16.8 c 3.9,21 3.9,42.5 0,63.5 z M 268.7,307.2 C 327.9,230.2 240,142.3 163,201.5 c -59.2,77 28.7,164.9 105.7,105.7 z"
     id="path7569"
     inkscape:connector-curvature="0"
     style="fill:#10ac84;fill-opacity:1"
     sodipodi:nodetypes="cccccccsccsccccccccccccccsccsccccccccccc" />
</svg>
