<?xml version="1.0" encoding="UTF-8" standalone="no"?>
<svg
   xmlns:dc="http://purl.org/dc/elements/1.1/"
   xmlns:cc="http://creativecommons.org/ns#"
   xmlns:rdf="http://www.w3.org/1999/02/22-rdf-syntax-ns#"
   xmlns:svg="http://www.w3.org/2000/svg"
   xmlns="http://www.w3.org/2000/svg"
   xmlns:sodipodi="http://sodipodi.sourceforge.net/DTD/sodipodi-0.dtd"
   xmlns:inkscape="http://www.inkscape.org/namespaces/inkscape"
   aria-hidden="true"
   focusable="false"
   data-prefix="fas"
   data-icon="desktop"
   class="svg-inline--fa fa-desktop fa-w-18"
   role="img"
   viewBox="0 0 576 512"
   version="1.1"
   id="svg4"
   sodipodi:docname="desktop.svg"
   inkscape:version="0.92.3 (2405546, 2018-03-11)">
  <metadata
     id="metadata10">
    <rdf:RDF>
      <cc:Work
         rdf:about="">
        <dc:format>image/svg+xml</dc:format>
        <dc:type
           rdf:resource="http://purl.org/dc/dcmitype/StillImage" />
      </cc:Work>
    </rdf:RDF>
  </metadata>
  <defs
     id="defs8" />
  <sodipodi:namedview
     pagecolor="#ffffff"
     bordercolor="#666666"
     borderopacity="1"
     objecttolerance="10"
     gridtolerance="10"
     guidetolerance="10"
     inkscape:pageopacity="0"
     inkscape:pageshadow="2"
     inkscape:window-width="1366"
     inkscape:window-height="712"
     id="namedview6"
     showgrid="false"
     inkscape:zoom="0.65186406"
     inkscape:cx="263.81328"
     inkscape:cy="255.88343"
     inkscape:window-x="0"
     inkscape:window-y="0"
     inkscape:window-maximized="1"
     inkscape:current-layer="svg4"
     inkscape:object-nodes="false"
     showguides="false" />
  <path
     d="M528 0H48C21.5 0 0 21.5 0 48v320c0 26.5 21.5 48 48 48h192l-16 48h-72c-13.3 0-24 10.7-24 24s10.7 24 24 24h272c13.3 0 24-10.7 24-24s-10.7-24-24-24h-72l-16-48h192c26.5 0 48-21.5 48-48V48c0-26.5-21.5-48-48-48zm-16 352H64V64h448v288z"
     id="path2"
     style="fill:#3298dc;fill-opacity:1"
     fill="currentColor" />
  <path
     inkscape:connector-curvature="0"
     d="M 337.92049,234.07556 H 300.7233 l 19.57653,47.68445 c 1.36364,3.30583 -0.1946,7.01243 -3.31143,8.41499 l -17.23917,7.51314 c -3.21361,1.40256 -6.81747,-0.20022 -8.18111,-3.40611 l -18.60245,-45.28011 -30.38778,31.25525 c -4.04953,4.16454 -10.61664,0.95409 -10.61664,-4.50781 V 125.0875 c 0,-5.75048 6.98507,-8.55384 10.61629,-4.50782 l 99.72594,102.57664 c 4.02253,3.91979 1.05437,10.91924 -4.38299,10.91924 z"
     id="path4107"
     style="fill:none;stroke:#000000;stroke-width:10.51916981;stroke-miterlimit:4;stroke-dasharray:none;stroke-opacity:1" />
</svg>
