<?xml version="1.0" encoding="UTF-8" standalone="no"?>
<svg
   xmlns:dc="http://purl.org/dc/elements/1.1/"
   xmlns:cc="http://creativecommons.org/ns#"
   xmlns:rdf="http://www.w3.org/1999/02/22-rdf-syntax-ns#"
   xmlns:svg="http://www.w3.org/2000/svg"
   xmlns="http://www.w3.org/2000/svg"
   xmlns:sodipodi="http://sodipodi.sourceforge.net/DTD/sodipodi-0.dtd"
   xmlns:inkscape="http://www.inkscape.org/namespaces/inkscape"
   aria-hidden="true"
   focusable="false"
   data-prefix="fas"
   data-icon="hat-wizard"
   class="svg-inline--fa fa-hat-wizard fa-w-16"
   role="img"
   viewBox="0 0 512 512"
   version="1.1"
   id="svg1627"
   sodipodi:docname="hat-wizard-solid.svg"
   inkscape:version="0.92.3 (2405546, 2018-03-11)">
  <metadata
     id="metadata1633">
    <rdf:RDF>
      <cc:Work
         rdf:about="">
        <dc:format>image/svg+xml</dc:format>
        <dc:type
           rdf:resource="http://purl.org/dc/dcmitype/StillImage" />
      </cc:Work>
    </rdf:RDF>
  </metadata>
  <defs
     id="defs1631" />
  <sodipodi:namedview
     pagecolor="#ffffff"
     bordercolor="#666666"
     borderopacity="1"
     objecttolerance="10"
     gridtolerance="10"
     guidetolerance="10"
     inkscape:pageopacity="0"
     inkscape:pageshadow="2"
     inkscape:window-width="1366"
     inkscape:window-height="712"
     id="namedview1629"
     showgrid="false"
     inkscape:object-nodes="true"
     inkscape:zoom="0.64"
     inkscape:cx="275.75661"
     inkscape:cy="233.17816"
     inkscape:window-x="0"
     inkscape:window-y="0"
     inkscape:window-maximized="1"
     inkscape:current-layer="svg1627" />
  <path
     style="fill:#6539bb;fill-opacity:1"
     d="M 496,448 H 16 c -8.84,0 -16,7.16 -16,16 v 32 c 0,8.84 7.16,16 16,16 h 480 c 8.84,0 16,-7.16 16,-16 v -32 c 0,-8.84 -7.16,-16 -16,-16 z"
     id="path2182" />
  <path
     style="fill:#6539bb;fill-opacity:1"
     d="m 192,384 -64,-32 64,-32 32,-64 32,64 64,32 -64,32 -16,32 H 448 L 361.59,214.37 c -6.17865,-14.40643 -6.85123,-30.58033 -1.89,-45.45 L 416,0 228.42,107.19 c -23.66322,13.52185 -42.39226,34.2443 -53.46,59.15 L 64,416 h 144 z"
     id="path2180" />
  <path
     style="fill:#feca57;fill-opacity:1"
     d="m 256,160 16,-32 16,32 32,16 -32,16 -16,32 -16,-32 -32,-16 z"
     id="path1625" />
  <path
     style="fill:#feca57;stroke:#feca57;stroke-width:1px;stroke-linecap:butt;stroke-linejoin:miter;stroke-opacity:1;fill-opacity:1"
     d="m 208,416 h 32 l 16,-32 64,-32 -64,-32 -32,-64 -32,64 -64,32 64,32 z"
     id="path2218"
     inkscape:connector-curvature="0" />
</svg>
